<?xml version="1.0" standalone="no"?>
<!DOCTYPE svg PUBLIC "-//W3C//DTD SVG 1.1//EN" "http://www.w3.org/Graphics/SVG/1.1/DTD/svg11.dtd">
<svg version="1.1" xmlns="http://www.w3.org/2000/svg" viewBox="0 0 363.73988949553745 330.13468140059507" width="1091.2196684866124" height="990.4040442017852"><!-- svg-source:excalidraw --><metadata></metadata><defs><style class="style-fonts">
      </style></defs><g stroke-linecap="round" transform="translate(75.61446039166958 10) rotate(0 97.5 97.5)"><path d="M142.98 11.8 C153.93 16.17, 164.55 26.66, 172.48 36.27 C180.42 45.88, 186.84 57.71, 190.57 69.46 C194.31 81.21, 195.95 94.49, 194.9 106.76 C193.85 119.03, 190.23 131.9, 184.27 143.07 C178.31 154.25, 169.06 165.86, 159.13 173.83 C149.21 181.8, 136.76 187.3, 124.72 190.89 C112.68 194.47, 99.22 196.65, 86.9 195.32 C74.59 193.99, 61.57 189.08, 50.82 182.93 C40.07 176.78, 30.05 167.87, 22.41 158.42 C14.76 148.97, 8.55 137.96, 4.95 126.23 C1.35 114.51, -0.44 100.57, 0.81 88.08 C2.05 75.58, 6.45 62.28, 12.42 51.24 C18.39 40.2, 26.98 29.54, 36.63 21.84 C46.29 14.14, 58.53 8.59, 70.34 5.02 C82.14 1.44, 94.9 -0.8, 107.45 0.39 C120 1.57, 138.94 9.48, 145.62 12.12 C152.3 14.77, 148.18 14.88, 147.53 16.29 M89.67 -1.1 C101.42 -3.36, 117.77 2.37, 129.96 6.33 C142.15 10.3, 153.44 14.63, 162.81 22.69 C172.18 30.75, 181.05 43.2, 186.19 54.7 C191.33 66.21, 193.02 79.26, 193.66 91.71 C194.3 104.16, 193.59 117.63, 190.02 129.4 C186.44 141.17, 180.32 153.25, 172.19 162.32 C164.07 171.4, 152.69 178.65, 141.27 183.86 C129.86 189.06, 115.96 192.4, 103.7 193.57 C91.44 194.74, 79.64 194.83, 67.71 190.89 C55.78 186.95, 41.8 178.5, 32.12 169.93 C22.43 161.36, 14.86 150.27, 9.6 139.49 C4.35 128.7, 1.38 117.62, 0.57 105.21 C-0.23 92.79, 1.08 77.07, 4.76 65.01 C8.44 52.95, 14.66 42.03, 22.64 32.85 C30.63 23.67, 41.39 15.48, 52.69 9.93 C63.99 4.38, 83.94 0.74, 90.45 -0.45 C96.97 -1.64, 91.81 0.98, 91.78 2.78" stroke="none" stroke-width="0" fill="#1971c2"></path><path d="M54.86 9.54 C64.87 2.88, 78.72 0.66, 91.05 0.05 C103.37 -0.56, 116.96 1.95, 128.81 5.89 C140.66 9.84, 152.83 15.83, 162.15 23.74 C171.47 31.65, 179.24 42.28, 184.71 53.35 C190.18 64.41, 194.07 77.53, 194.97 90.13 C195.88 102.72, 194.17 117.12, 190.15 128.92 C186.14 140.71, 179.16 151.45, 170.88 160.91 C162.6 170.37, 151.46 180.17, 140.47 185.67 C129.47 191.17, 117.39 193.33, 104.89 193.94 C92.4 194.54, 77.56 193.2, 65.51 189.29 C53.45 185.39, 41.86 178.64, 32.57 170.48 C23.29 162.33, 15.24 151.52, 9.82 140.39 C4.4 129.25, 0.68 115.87, 0.05 103.67 C-0.57 91.48, 1.95 78.94, 6.07 67.21 C10.19 55.48, 15.86 43.22, 24.79 33.29 C33.72 23.36, 52.95 11.93, 59.64 7.62 C66.34 3.31, 64.57 5.77, 64.94 7.43 M98.23 -0.28 C110.27 -1.35, 125.16 4.27, 136.9 9.51 C148.64 14.74, 159.97 22.38, 168.65 31.14 C177.33 39.89, 184.8 50.52, 188.97 62.04 C193.13 73.55, 194.24 88.03, 193.64 100.23 C193.04 112.42, 190.39 124.01, 185.39 135.21 C180.4 146.42, 172.3 158.76, 163.67 167.44 C155.03 176.12, 145.02 182.8, 133.59 187.29 C122.16 191.77, 107.8 194.22, 95.08 194.36 C82.37 194.5, 68.58 192.91, 57.29 188.11 C46 183.32, 35.79 174.89, 27.34 165.61 C18.9 156.32, 11.06 143.89, 6.62 132.41 C2.18 120.93, 0.63 109, 0.68 96.72 C0.74 84.44, 1.87 70.12, 6.94 58.73 C12.02 47.34, 22.19 37.23, 31.14 28.36 C40.09 19.49, 49.24 10.08, 60.67 5.51 C72.1 0.95, 93.17 1.59, 99.73 0.97 C106.29 0.34, 100.2 0.33, 100.02 1.78" stroke="#40c057" stroke-width="2" fill="none"></path></g><g transform="translate(216.0099762255801 138.16894405362603) rotate(0 0.00004999999998744897 0.00004999999998744897)" stroke="none"><path fill="#2f9e44" d="M 3.14,-3.14 Q 3.14,-3.14 3.55,-2.55 3.97,-1.97 4.18,-1.28 4.40,-0.59 4.38,0.11 4.36,0.83 4.11,1.51 3.86,2.18 3.41,2.74 2.96,3.30 2.36,3.69 1.75,4.07 1.05,4.25 0.36,4.42 -0.35,4.36 -1.07,4.30 -1.73,4.02 -2.39,3.74 -2.92,3.26 -3.46,2.78 -3.81,2.15 -4.16,1.53 -4.30,0.82 -4.43,0.11 -4.34,-0.59 -4.24,-1.30 -3.92,-1.94 -3.60,-2.59 -3.09,-3.09 -2.59,-3.60 -1.94,-3.92 -1.30,-4.24 -0.59,-4.34 0.12,-4.43 0.82,-4.30 1.53,-4.16 2.15,-3.81 2.78,-3.46 3.26,-2.92 3.74,-2.39 4.02,-1.73 4.31,-1.07 4.36,-0.35 4.42,0.36 4.25,1.05 4.07,1.75 3.69,2.36 3.30,2.96 2.74,3.41 2.18,3.86 1.51,4.11 0.83,4.36 0.11,4.38 -0.60,4.40 -1.28,4.18 -1.97,3.97 -2.55,3.55 -3.14,3.13 -3.14,3.14 -3.14,3.14 -3.47,2.71 -3.80,2.29 -4.02,1.80 -4.24,1.32 -4.33,0.79 -4.43,0.26 -4.40,-0.26 -4.36,-0.80 -4.20,-1.31 -4.04,-1.82 -3.77,-2.28 -3.49,-2.73 -3.11,-3.11 -2.73,-3.49 -2.28,-3.77 -1.82,-4.05 -1.31,-4.20 -0.80,-4.36 -0.26,-4.40 0.26,-4.43 0.79,-4.33 1.32,-4.24 1.80,-4.02 2.29,-3.80 2.71,-3.47 3.14,-3.14 3.14,-3.14 L 3.14,-3.14 Z"></path></g><g transform="translate(218.7049315387294 129.18575967646166) rotate(0 -0.898318437716398 15.570852920418247)" stroke="none"><path fill="#1971c2" d="M 3.32,3.62 Q 3.32,3.62 2.36,4.65 1.39,5.67 1.02,8.94 0.64,12.21 -2.14,9.33 -4.92,6.44 -3.32,4.58 -1.72,2.72 -2.38,3.12 -3.03,3.52 -2.41,3.04 -1.78,2.55 -1.06,2.23 -0.34,1.91 0.43,1.77 1.20,1.63 1.99,1.69 2.78,1.74 3.53,1.98 4.29,2.22 4.96,2.63 5.63,3.04 6.19,3.60 6.74,4.16 7.15,4.84 7.55,5.52 7.79,6.27 8.02,7.03 8.06,7.81 8.10,8.60 7.96,9.38 7.81,10.15 7.48,10.87 7.16,11.59 6.67,12.21 6.18,12.83 3.91,15.04 1.63,17.26 -0.27,18.27 -2.19,19.28 -4.52,20.30 -6.85,21.33 -9.20,21.92 -11.56,22.51 -13.71,23.34 -15.87,24.18 -18.04,24.99 -20.20,25.81 -22.18,26.74 -24.16,27.68 -26.31,28.59 -28.46,29.51 -30.57,30.45 -32.67,31.39 -34.75,32.13 -36.84,32.87 -38.35,34.12 -39.86,35.36 -40.75,35.60 -41.64,35.84 -42.56,35.86 -43.48,35.88 -44.38,35.68 -45.28,35.47 -46.10,35.06 -46.93,34.65 -47.63,34.06 -48.33,33.46 -48.87,32.71 -49.41,31.97 -49.75,31.11 -50.10,30.26 -50.23,29.34 -50.36,28.43 -50.26,27.52 -50.17,26.60 -49.86,25.73 -49.55,24.86 -49.05,24.10 -48.54,23.33 -47.86,22.70 -47.19,22.08 -46.38,21.63 -45.57,21.19 -43.13,21.04 -40.68,20.89 -38.43,21.39 -36.18,21.89 -32.89,21.89 -29.60,21.89 -27.08,21.52 -24.55,21.16 -22.43,20.77 -20.32,20.39 -17.79,19.58 -15.26,18.76 -13.25,17.81 -11.23,16.86 -7.39,15.64 -3.55,14.43 -0.63,13.45 2.29,12.48 4.13,11.36 5.96,10.25 8.37,8.74 10.77,7.22 12.55,5.70 14.34,4.18 16.04,2.55 17.75,0.91 18.83,-0.06 19.90,-1.03 20.60,-1.56 21.29,-2.08 22.09,-2.42 22.88,-2.76 23.74,-2.90 24.59,-3.04 25.46,-2.97 26.32,-2.91 27.15,-2.63 27.97,-2.36 28.70,-1.90 29.44,-1.44 30.04,-0.81 30.64,-0.19 31.08,0.55 31.51,1.30 31.75,2.14 32.00,2.97 32.03,3.83 32.07,4.70 31.90,5.55 31.72,6.40 31.35,7.19 30.98,7.97 30.44,8.64 29.89,9.31 26.98,9.75 24.07,10.19 22.30,11.98 20.53,13.76 17.66,14.47 14.80,15.18 10.72,15.79 6.63,16.40 4.28,16.96 1.93,17.52 -0.31,18.18 -2.57,18.84 -3.31,18.92 -4.06,19.00 -4.80,18.90 -5.54,18.80 -6.24,18.52 -6.94,18.25 -7.55,17.81 -8.16,17.38 -8.65,16.81 -9.14,16.24 -9.48,15.57 -9.81,14.90 -9.98,14.17 -10.15,13.44 -10.14,12.69 -10.13,11.94 -9.94,11.22 -9.75,10.49 -9.40,9.84 -9.04,9.18 -8.53,8.62 -8.03,8.07 -7.40,7.65 -6.78,7.23 -6.08,6.98 -5.37,6.72 -2.96,7.41 -0.55,8.10 2.53,5.48 5.62,2.86 9.17,1.62 12.72,0.38 15.45,-0.53 18.18,-1.45 21.15,-2.51 24.12,-3.58 25.61,-5.31 27.11,-7.04 29.36,-8.37 31.61,-9.69 33.84,-10.46 36.07,-11.23 38.78,-10.99 41.49,-10.76 43.76,-8.96 46.04,-7.16 47.47,-4.95 48.89,-2.74 49.19,-0.46 49.49,1.80 48.93,4.07 48.36,6.33 47.62,8.77 46.89,11.20 45.35,12.71 43.81,14.21 42.06,16.01 40.31,17.82 37.79,19.83 35.28,21.84 33.63,23.37 31.97,24.90 30.26,26.21 28.55,27.52 26.11,28.92 23.68,30.32 21.67,31.16 19.67,32.00 17.51,32.88 15.36,33.77 12.77,34.68 10.19,35.60 7.75,36.32 5.31,37.04 3.14,37.75 0.98,38.46 -1.30,39.08 -3.59,39.69 -5.73,40.23 -7.87,40.77 -10.62,41.21 -13.36,41.65 -15.57,41.96 -17.77,42.28 -19.96,42.47 -22.15,42.66 -24.56,42.97 -26.97,43.28 -29.25,43.31 -31.54,43.35 -33.85,43.36 -36.17,43.37 -38.30,43.38 -40.42,43.39 -42.07,43.39 -43.73,43.39 -44.66,43.28 -45.58,43.16 -46.46,42.83 -47.33,42.50 -48.10,41.97 -48.87,41.44 -49.49,40.74 -50.11,40.04 -50.55,39.21 -50.98,38.38 -51.21,37.47 -51.43,36.56 -51.43,35.63 -51.43,34.69 -51.21,33.78 -50.98,32.88 -50.55,32.05 -50.11,31.22 -49.49,30.52 -48.87,29.82 -48.10,29.29 -47.33,28.76 -46.46,28.42 -45.58,28.09 -44.65,27.98 -43.73,27.87 -42.49,28.07 -41.25,28.27 -40.14,28.86 -39.03,29.45 -38.17,30.36 -37.30,31.27 -36.78,32.41 -36.25,33.55 -36.11,34.80 -35.98,36.05 -36.25,37.28 -36.52,38.50 -37.16,39.58 -37.81,40.65 -38.77,41.47 -39.73,42.28 -40.89,42.74 -42.06,43.21 -43.31,43.28 -44.57,43.34 -45.78,43.01 -46.99,42.67 -48.03,41.97 -49.07,41.26 -49.82,40.26 -50.58,39.26 -50.99,38.07 -51.39,36.88 -51.39,35.63 -51.39,34.37 -50.98,33.18 -50.58,31.99 -49.82,30.99 -49.06,29.99 -48.02,29.29 -46.98,28.58 -45.77,28.25 -44.56,27.91 -43.31,27.98 -42.06,28.05 -40.89,28.51 -39.72,28.98 -38.77,29.79 -37.81,30.60 -37.16,31.68 -36.52,32.76 -36.25,33.98 -35.98,35.21 -36.11,36.46 -36.25,37.71 -36.78,38.85 -37.30,39.99 -38.17,40.90 -39.03,41.81 -40.14,42.40 -41.25,42.98 -42.49,43.19 -43.73,43.39 -43.73,43.39 -43.73,43.39 -44.65,43.28 -45.58,43.16 -46.46,42.83 -47.33,42.50 -48.10,41.97 -48.87,41.44 -49.49,40.74 -50.11,40.04 -50.55,39.21 -50.98,38.38 -51.21,37.47 -51.43,36.56 -51.43,35.63 -51.43,34.69 -51.21,33.78 -50.98,32.88 -50.55,32.05 -50.11,31.22 -49.49,30.52 -48.87,29.82 -48.10,29.29 -47.33,28.76 -46.46,28.42 -45.58,28.09 -44.66,27.98 -43.73,27.87 -41.38,27.87 -39.03,27.88 -36.74,27.89 -34.45,27.90 -31.95,27.91 -29.45,27.92 -27.19,27.79 -24.94,27.65 -22.27,27.39 -19.60,27.12 -17.20,26.82 -14.81,26.52 -12.24,26.02 -9.66,25.52 -7.11,24.91 -4.55,24.30 -1.78,23.38 0.99,22.46 3.82,21.58 6.66,20.71 8.80,19.88 10.95,19.06 13.05,18.10 15.16,17.15 17.66,15.92 20.15,14.69 22.24,13.13 24.33,11.57 26.09,10.15 27.85,8.73 29.73,7.48 31.61,6.24 32.82,3.55 34.02,0.87 36.75,1.56 39.49,2.26 37.31,3.09 35.13,3.93 33.06,5.60 31.00,7.27 28.70,8.21 26.39,9.16 24.05,9.84 21.70,10.53 18.85,11.35 16.01,12.16 12.86,13.17 9.71,14.19 7.35,15.12 4.98,16.06 2.72,17.04 0.46,18.01 -3.41,17.79 -7.30,17.57 -4.93,18.20 -2.57,18.84 -3.31,18.92 -4.06,19.00 -4.80,18.90 -5.54,18.80 -6.24,18.52 -6.94,18.25 -7.55,17.81 -8.16,17.38 -8.65,16.81 -9.14,16.24 -9.48,15.57 -9.81,14.90 -9.98,14.17 -10.15,13.44 -10.14,12.69 -10.13,11.94 -9.94,11.22 -9.75,10.49 -9.40,9.84 -9.04,9.18 -8.53,8.62 -8.03,8.07 -7.41,7.65 -6.78,7.24 -6.08,6.98 -5.37,6.72 -3.18,6.30 -1.00,5.88 1.32,5.26 3.65,4.63 7.35,3.27 11.05,1.92 13.11,1.23 15.17,0.54 17.38,-0.51 19.58,-1.57 22.45,-1.88 25.33,-2.20 22.62,-1.62 19.90,-1.03 20.60,-1.56 21.29,-2.08 22.09,-2.42 22.88,-2.76 23.74,-2.90 24.59,-3.04 25.46,-2.97 26.32,-2.91 27.15,-2.63 27.97,-2.36 28.70,-1.90 29.44,-1.44 30.04,-0.81 30.64,-0.19 31.07,0.55 31.51,1.30 31.75,2.14 32.00,2.97 32.03,3.83 32.07,4.70 31.90,5.55 31.72,6.40 31.35,7.18 30.98,7.97 30.44,8.64 29.89,9.31 29.47,9.70 29.06,10.08 27.03,11.73 25.00,13.38 23.30,14.90 21.61,16.43 19.84,17.66 18.07,18.90 15.24,20.58 12.40,22.27 10.50,23.28 8.59,24.30 6.15,25.15 3.72,26.01 0.19,27.16 -3.33,28.32 -5.69,29.31 -8.06,30.31 -10.79,31.32 -13.52,32.34 -17.61,33.44 -21.71,34.54 -24.96,35.40 -28.21,36.26 -32.91,36.56 -37.61,36.86 -41.06,36.28 -44.52,35.70 -42.19,35.53 -39.86,35.36 -40.75,35.60 -41.64,35.84 -42.56,35.86 -43.48,35.88 -44.38,35.68 -45.28,35.47 -46.10,35.06 -46.93,34.65 -47.63,34.06 -48.33,33.46 -48.87,32.71 -49.41,31.97 -49.75,31.11 -50.10,30.26 -50.23,29.35 -50.36,28.43 -50.26,27.52 -50.17,26.60 -49.86,25.73 -49.55,24.87 -49.05,24.10 -48.54,23.33 -47.86,22.70 -47.19,22.08 -46.38,21.63 -45.57,21.19 -45.36,20.87 -45.15,20.55 -42.86,19.54 -40.58,18.53 -42.47,19.71 -44.36,20.89 -41.80,19.35 -39.23,17.80 -36.96,17.01 -34.69,16.22 -32.36,15.33 -30.03,14.45 -27.22,13.18 -24.41,11.91 -22.35,11.18 -20.30,10.45 -17.90,9.75 -15.51,9.04 -13.00,8.46 -10.49,7.88 -8.42,7.10 -6.35,6.31 -4.69,4.91 -3.03,3.52 -2.41,3.04 -1.78,2.55 -1.06,2.23 -0.34,1.91 0.43,1.77 1.20,1.63 1.99,1.69 2.78,1.74 3.53,1.98 4.29,2.21 4.96,2.63 5.63,3.04 6.19,3.60 6.74,4.16 7.15,4.84 7.55,5.52 7.79,6.27 8.02,7.03 8.06,7.81 8.10,8.60 7.96,9.38 7.81,10.15 7.48,10.87 7.16,11.59 6.67,12.21 6.18,12.83 4.27,13.94 2.37,15.04 0.28,15.92 -1.80,16.79 -4.21,16.75 -6.62,16.71 -8.76,14.78 -10.89,12.85 -10.62,9.20 -10.35,5.55 -9.54,3.41 -8.72,1.27 -7.12,-0.30 -5.53,-1.88 -4.42,-2.75 -3.32,-3.62 -2.84,-3.97 -2.36,-4.32 -1.81,-4.54 -1.25,-4.76 -0.67,-4.84 -0.08,-4.92 0.50,-4.86 1.09,-4.80 1.65,-4.59 2.21,-4.39 2.70,-4.06 3.20,-3.74 3.60,-3.30 4.00,-2.86 4.28,-2.34 4.57,-1.82 4.72,-1.24 4.87,-0.67 4.88,-0.08 4.89,0.51 4.76,1.08 4.63,1.66 4.36,2.19 4.09,2.72 3.71,3.17 3.32,3.63 3.32,3.63 L 3.32,3.62 Z"></path></g><g transform="translate(248.09657773857623 139.58893593700634) rotate(0 0.00004999999998744897 0.00004999999998744897)" stroke="none"><path fill="#1971c2" d="M 3.14,-3.14 Q 3.14,-3.14 3.55,-2.55 3.97,-1.97 4.18,-1.28 4.40,-0.59 4.38,0.11 4.36,0.83 4.11,1.51 3.86,2.18 3.41,2.74 2.96,3.30 2.36,3.69 1.75,4.07 1.05,4.25 0.36,4.42 -0.35,4.36 -1.07,4.30 -1.73,4.02 -2.39,3.74 -2.92,3.26 -3.46,2.78 -3.81,2.15 -4.16,1.53 -4.30,0.82 -4.43,0.11 -4.34,-0.59 -4.24,-1.30 -3.92,-1.94 -3.60,-2.59 -3.09,-3.09 -2.59,-3.60 -1.94,-3.92 -1.30,-4.24 -0.59,-4.34 0.12,-4.43 0.82,-4.30 1.53,-4.16 2.15,-3.81 2.78,-3.46 3.26,-2.92 3.74,-2.39 4.02,-1.73 4.31,-1.07 4.36,-0.35 4.42,0.36 4.25,1.05 4.07,1.75 3.69,2.36 3.30,2.96 2.74,3.41 2.18,3.86 1.51,4.11 0.83,4.36 0.11,4.38 -0.60,4.40 -1.28,4.18 -1.97,3.97 -2.55,3.55 -3.14,3.13 -3.14,3.14 -3.14,3.14 -3.47,2.71 -3.80,2.29 -4.02,1.80 -4.24,1.32 -4.33,0.79 -4.43,0.26 -4.40,-0.26 -4.36,-0.80 -4.20,-1.31 -4.04,-1.82 -3.77,-2.28 -3.49,-2.73 -3.11,-3.11 -2.73,-3.49 -2.28,-3.77 -1.82,-4.05 -1.31,-4.20 -0.80,-4.36 -0.26,-4.40 0.26,-4.43 0.79,-4.33 1.32,-4.24 1.80,-4.02 2.29,-3.80 2.71,-3.47 3.14,-3.14 3.14,-3.14 L 3.14,-3.14 Z"></path></g><g transform="translate(154.59116476110626 179.0265931111773) rotate(0 17.492509230479072 -5.406775580329878)" stroke="none"><path fill="#1971c2" d="M -1.37,-4.46 Q -1.37,-4.46 3.72,-5.76 8.83,-7.06 13.64,-8.18 18.45,-9.30 21.16,-10.16 23.87,-11.02 26.32,-12.02 28.78,-13.03 30.94,-14.12 33.10,-15.21 33.86,-15.38 34.61,-15.55 35.38,-15.47 36.15,-15.38 36.86,-15.06 37.56,-14.74 38.12,-14.20 38.69,-13.67 39.05,-12.99 39.41,-12.30 39.54,-11.54 39.67,-10.78 39.54,-10.01 39.42,-9.25 39.06,-8.56 38.70,-7.88 38.13,-7.34 37.57,-6.81 36.87,-6.48 36.17,-6.16 35.40,-6.07 34.63,-5.99 33.87,-6.15 33.12,-6.32 32.45,-6.72 31.79,-7.12 31.28,-7.70 30.78,-8.29 30.49,-9.01 30.21,-9.73 30.16,-10.51 30.12,-11.28 30.33,-12.02 30.53,-12.77 30.97,-13.41 31.40,-14.05 32.02,-14.52 32.63,-14.99 33.36,-15.24 34.10,-15.49 34.87,-15.49 35.65,-15.49 36.38,-15.25 37.12,-15.00 37.73,-14.53 38.35,-14.07 38.79,-13.43 39.22,-12.79 39.43,-12.04 39.64,-11.29 39.60,-10.52 39.56,-9.75 39.27,-9.03 38.99,-8.31 38.48,-7.72 37.98,-7.12 37.32,-6.72 36.66,-6.32 36.66,-6.32 36.66,-6.32 34.11,-5.34 31.56,-4.36 28.75,-3.85 25.94,-3.34 23.19,-2.72 20.44,-2.11 15.86,-0.63 11.27,0.84 6.32,2.65 1.37,4.46 0.82,4.56 0.27,4.66 -0.29,4.62 -0.85,4.59 -1.38,4.42 -1.92,4.25 -2.40,3.96 -2.88,3.66 -3.28,3.27 -3.68,2.87 -3.97,2.38 -4.26,1.90 -4.42,1.36 -4.59,0.83 -4.62,0.26 -4.66,-0.29 -4.55,-0.84 -4.45,-1.40 -4.22,-1.91 -3.99,-2.42 -3.64,-2.86 -3.29,-3.31 -2.85,-3.65 -2.40,-4.00 -1.89,-4.23 -1.37,-4.46 -1.37,-4.46 L -1.37,-4.46 Z"></path></g><g transform="translate(189.5761832220644 168.21304195051755) rotate(0 0.15902281118616202 0)" stroke="none"><path fill="#1971c2" d="M 4.24,-1.32 Q 4.24,-1.32 4.30,-0.26 4.36,0.80 3.93,1.76 3.49,2.73 2.65,3.39 1.82,4.05 0.77,4.24 -0.26,4.43 -1.28,4.11 -2.29,3.80 -3.04,3.04 -3.80,2.29 -4.11,1.28 -4.43,0.26 -4.24,-0.77 -4.04,-1.82 -3.39,-2.65 -2.73,-3.49 -1.76,-3.93 -0.79,-4.36 0.26,-4.30 1.32,-4.23 2.23,-3.68 3.14,-3.13 3.69,-2.23 L 4.24,-1.32 Z"></path></g><g stroke-linecap="round" transform="translate(158.73988949553745 106.82393200727171) rotate(0 97.5 97.5)"><path d="M86.37 -0.38 C98.07 -3.06, 112.55 -0.14, 124.48 3.57 C136.41 7.28, 148.15 14.21, 157.96 21.89 C167.76 29.56, 177.19 38.85, 183.31 49.63 C189.43 60.42, 193.26 74.03, 194.67 86.59 C196.07 99.14, 195.1 113, 191.74 124.98 C188.38 136.97, 182.37 148.96, 174.5 158.48 C166.64 168, 155.45 175.99, 144.54 182.09 C133.63 188.19, 121.54 193.66, 109.02 195.09 C96.51 196.51, 81.41 194.13, 69.45 190.66 C57.48 187.19, 46.76 181.94, 37.2 174.28 C27.65 166.62, 18.31 155.8, 12.11 144.69 C5.91 133.59, 1.43 120.05, 0.02 107.64 C-1.39 95.23, 0.2 82.14, 3.67 70.25 C7.14 58.37, 13.15 45.95, 20.83 36.32 C28.52 26.7, 36.75 18.71, 49.77 12.5 C62.79 6.29, 88.54 0.73, 98.95 -0.94 C109.37 -2.61, 112.02 0.69, 112.24 2.48 M71.27 3.2 C82.17 -1.25, 95.71 0.37, 107.95 2.14 C120.19 3.92, 133.64 7.8, 144.71 13.85 C155.77 19.91, 166.58 28.98, 174.33 38.46 C182.09 47.94, 188 58.77, 191.24 70.74 C194.48 82.7, 195.35 97.66, 193.77 110.26 C192.19 122.86, 187.69 135.64, 181.75 146.34 C175.82 157.04, 167.95 167.14, 158.17 174.48 C148.38 181.81, 134.99 187.08, 123.05 190.34 C111.11 193.59, 98.67 195.14, 86.54 194 C74.41 192.87, 61.34 189.43, 50.25 183.51 C39.16 177.59, 28.02 168.24, 20 158.5 C11.99 148.76, 5.23 137.02, 2.16 125.07 C-0.91 113.12, -0.12 99.46, 1.58 86.8 C3.29 74.13, 6.39 59.9, 12.37 49.07 C18.34 38.23, 27.67 29.52, 37.42 21.8 C47.18 14.09, 65.14 5.36, 70.9 2.75 C76.65 0.14, 71.22 4.26, 71.96 6.16" stroke="none" stroke-width="0" fill="#e03131"></path><path d="M59.33 7.24 C69.4 1.04, 82.53 0.23, 94.94 0.22 C107.36 0.21, 122.12 2.73, 133.81 7.18 C145.49 11.64, 156.23 18.52, 165.06 26.94 C173.89 35.36, 181.94 46.08, 186.81 57.71 C191.68 69.34, 193.96 84.17, 194.28 96.72 C194.6 109.27, 193.27 121.57, 188.72 133.01 C184.18 144.45, 175.83 156.32, 167.03 165.38 C158.23 174.44, 147.27 182.42, 135.93 187.36 C124.59 192.31, 111.27 195, 98.98 195.07 C86.69 195.13, 73.6 192.41, 62.21 187.75 C50.83 183.09, 39.72 175.54, 30.69 167.12 C21.66 158.71, 13.3 148.58, 8.04 137.28 C2.77 125.97, -0.53 111.73, -0.89 99.29 C-1.24 86.85, 1.3 74.29, 5.91 62.63 C10.52 50.97, 15.68 39.36, 26.77 29.35 C37.86 19.34, 62.39 6.95, 72.45 2.6 C82.51 -1.76, 86.71 1.47, 87.12 3.22 M136.1 9.51 C147.78 12.68, 160.26 21.48, 168.92 30.06 C177.58 38.63, 183.93 49.45, 188.06 60.95 C192.18 72.46, 193.82 86.4, 193.67 99.08 C193.52 111.75, 192.11 125.6, 187.15 136.99 C182.19 148.38, 172.71 158.71, 163.89 167.41 C155.07 176.11, 145.77 184.82, 134.23 189.2 C122.68 193.57, 106.99 193.83, 94.62 193.66 C82.25 193.48, 71.01 193.12, 60.01 188.16 C49 183.21, 37.24 172.97, 28.6 163.91 C19.96 154.85, 13.1 145.02, 8.15 133.81 C3.2 122.61, -1.11 109.06, -1.1 96.66 C-1.1 84.27, 2.84 70.87, 8.18 59.44 C13.53 48.02, 21.98 37.05, 30.97 28.11 C39.97 19.17, 50.87 10.7, 62.16 5.82 C73.46 0.93, 86.16 -1.73, 98.75 -1.19 C111.33 -0.65, 131.74 7.39, 137.66 9.06 C143.58 10.73, 135.25 7.73, 134.29 8.83" stroke="#228be6" stroke-width="2" fill="none"></path></g><g stroke-linecap="round" transform="translate(10 125.13468140059507) rotate(0 97.5 97.5)"><path d="M84.33 0.06 C95.88 -2.68, 112.04 0.79, 124.12 4.35 C136.21 7.9, 147.1 13.89, 156.84 21.38 C166.57 28.87, 176.38 38.69, 182.51 49.28 C188.65 59.86, 192.09 72.45, 193.64 84.88 C195.19 97.3, 194.9 111.67, 191.81 123.84 C188.72 136, 182.72 148, 175.11 157.85 C167.5 167.7, 157.21 176.81, 146.16 182.95 C135.1 189.09, 121.23 193.16, 108.77 194.69 C96.32 196.23, 83.31 195.51, 71.43 192.16 C59.56 188.81, 47.34 182.49, 37.52 174.61 C27.7 166.73, 18.72 155.75, 12.54 144.86 C6.35 133.98, 2 121.34, 0.41 109.29 C-1.18 97.23, -0.42 84.56, 3 72.54 C6.42 60.52, 13.15 47.23, 20.94 37.15 C28.73 27.06, 36.72 18.33, 49.75 12.03 C62.78 5.73, 88.71 0.88, 99.09 -0.65 C109.48 -2.19, 112.22 1.17, 112.05 2.8 M108.61 1.94 C120.64 1.43, 134.06 5.81, 144.69 11.25 C155.32 16.7, 164.73 24.8, 172.39 34.6 C180.05 44.4, 186.86 58.02, 190.64 70.04 C194.42 82.07, 196.25 94.68, 195.06 106.74 C193.88 118.8, 189.4 131.48, 183.53 142.4 C177.66 153.31, 169.33 164.05, 159.84 172.25 C150.34 180.45, 138.52 188.04, 126.58 191.59 C114.63 195.13, 100.57 194.94, 88.17 193.53 C75.77 192.12, 63.03 188.79, 52.2 183.12 C41.36 177.46, 31.23 168.98, 23.14 159.54 C15.05 150.1, 7.44 138.28, 3.66 126.48 C-0.12 114.67, -0.77 101.46, 0.48 88.72 C1.72 75.98, 5.13 61.25, 11.12 50.02 C17.12 38.8, 26.97 29.08, 36.43 21.37 C45.9 13.65, 56.17 7.37, 67.92 3.75 C79.67 0.13, 100.42 -0.07, 106.94 -0.35 C113.45 -0.62, 107.08 0.56, 107 2.12" stroke="none" stroke-width="0" fill="#40c057"></path><path d="M119.28 2.61 C131.01 3.79, 144.14 11.73, 154.37 18.78 C164.59 25.83, 174.12 34.45, 180.66 44.92 C187.19 55.38, 191.58 69.31, 193.55 81.58 C195.53 93.86, 195.2 106.64, 192.5 118.58 C189.81 130.51, 184.53 143.04, 177.38 153.2 C170.23 163.36, 160.19 172.62, 149.59 179.52 C138.99 186.41, 125.99 192.26, 113.77 194.58 C101.55 196.91, 88.49 196.4, 76.25 193.46 C64.02 190.51, 50.63 184.18, 40.35 176.9 C30.06 169.63, 20.96 160.25, 14.52 149.79 C8.09 139.33, 3.84 126.62, 1.73 114.12 C-0.38 101.62, -0.77 87.11, 1.87 74.8 C4.51 62.49, 10.33 50.06, 17.57 40.23 C24.82 30.4, 34.61 22.42, 45.35 15.82 C56.09 9.21, 68.44 2.44, 82 0.58 C95.56 -1.29, 118.45 3.41, 126.69 4.63 C134.93 5.85, 132 6.49, 131.43 7.88 M103.83 1.05 C115.87 0.41, 130.78 4.74, 141.86 9.9 C152.94 15.06, 162.42 22.62, 170.3 32.04 C178.19 41.45, 185.04 54.31, 189.16 66.39 C193.28 78.47, 195.95 92.41, 195.01 104.51 C194.07 116.61, 189 128, 183.55 139.01 C178.1 150.02, 171.47 162.17, 162.31 170.57 C153.15 178.97, 140.56 185.47, 128.57 189.4 C116.59 193.32, 102.5 194.88, 90.41 194.12 C78.31 193.36, 67 189.95, 56.03 184.83 C45.05 179.7, 33.02 172.71, 24.55 163.35 C16.08 153.99, 9.42 140.65, 5.21 128.67 C1.01 116.7, -1.63 103.93, -0.68 91.53 C0.26 79.13, 5.41 65.34, 10.88 54.29 C16.35 43.23, 22.8 33.55, 32.13 25.21 C41.45 16.87, 54.78 8.37, 66.83 4.25 C78.89 0.13, 98.24 0.94, 104.45 0.49 C110.67 0.03, 104.21 -0.14, 104.13 1.52" stroke="#fa5252" stroke-width="2" fill="none"></path></g></svg>